<svg width="19" height="20" viewBox="0 0 19 20" fill="none" xmlns="http://www.w3.org/2000/svg" role="presentation" focusable="false">
  <path d="M7.62 1.22C11.15 1.22 14.02 4.09 14.02 7.62C14.02 11.15 11.15 14.02 7.62 14.02C4.09 14.02 1.22 11.15 1.22 7.62C1.22 4.09 4.09 1.22 7.62 1.22ZM7.62 0C3.41 0 0 3.41 0 7.62C0 11.83 3.41 15.24 7.62 15.24C11.83 15.24 15.24 11.83 15.24 7.62C15.24 3.41 11.83 0 7.62 0Z" fill="#252525"></path>
  <path d="M18.0001 19.9999C17.8401 19.9999 17.6901 19.9399 17.5701 19.8199L13.6601 15.9299C13.4201 15.6899 13.4201 15.3099 13.6601 15.0699C13.9001 14.8299 14.2801 14.8299 14.5201 15.0699L18.4301 18.9599C18.6701 19.1999 18.6701 19.5799 18.4301 19.8199C18.3101 19.9399 18.1501 19.9999 18.0001 19.9999Z" fill="#252525"></path>
</svg>
