<svg width="119" height="30" viewBox="0 0 119 30" fill="none" xmlns="http://www.w3.org/2000/svg" role="presentation" focusable="false"><title>LONGINES</title><path d="M55.4269 30V25.1724H52.04L50.3465 23.4784H45.8589L43.8098 21.7845H39.3052L37.6117 20.0906H32.887L30.1266 17.7361H52.4295L53.5641 19.7688L54.902 17.7361H63.2676L64.5208 19.8027L66.2143 17.7361H87.6704L85.1302 20.0906H80.2022L78.712 21.7845H73.8856L72.3446 23.4784H67.7214L66.1635 25.1724H62.7765V30H55.4269ZM56.6462 29.2208H61.5742L60.6428 27.8487H57.5099L56.6462 29.2208ZM59.5759 24.7828L61.8959 28.3908V21.2764L59.5759 24.7828ZM56.189 28.2722L58.4751 24.7828L56.189 21.2594V28.2722ZM58.0857 27.1034H60.0501L59.0509 25.4095L58.0857 27.1034ZM62.7427 19.6502V24.3423H65.8756L66.6376 23.5462H63.7757L64.4869 22.8009H71.9381L72.8357 21.8862H67.7553L68.4327 21.1408H78.3225L79.2031 20.2092H71.4979L72.1922 19.4639H84.8084L85.7737 18.6339H66.5021L64.4869 21.4627L62.7935 18.6169H55.3761L53.5641 21.3949L51.8707 18.6H32.1757L33.2087 19.4469H45.8927L46.7225 20.2092H38.8818L39.8471 21.1408H49.5845L50.3296 21.8692H45.1138L46.1637 22.7839H53.5302L54.3092 23.5293H51.5489L52.294 24.3254H55.41V19.5994L62.7427 19.6502ZM58.001 22.4282L59.1017 23.9697L60.1009 22.4282H58.001ZM57.5607 21.8184H60.6258L61.5742 20.3278H56.6801L57.5607 21.8184ZM108.364 14.3991L107.535 15.6018H106.349V9.4698H107.839C107.924 10.4009 108.258 11.292 108.807 12.0491C109.355 12.8063 110.097 13.4016 110.955 13.7723C111.675 14.0621 112.449 14.1925 113.223 14.1544C113.998 14.1164 114.755 13.9109 115.443 13.5521C115.776 13.2823 116.008 12.9086 116.103 12.491C116.199 12.0733 116.151 11.6358 115.968 11.2484C115.545 10.5539 114.512 10.0627 112.107 9.55449C110.312 9.19877 106.163 8.6906 106.163 4.76072C106.163 0.83085 109.414 0.068589 111.531 0.068589C113.112 0.0530404 114.652 0.572373 115.9 1.54229L116.679 0.424309H118.017V6.21748H116.442C116.343 5.00584 115.777 3.88016 114.864 3.07758C113.951 2.27501 112.762 1.8582 111.548 1.91495C111.102 1.87251 110.652 1.93808 110.236 2.10612C109.821 2.27417 109.452 2.53977 109.16 2.88048C109.023 3.07802 108.929 3.30255 108.886 3.53914C108.842 3.77572 108.849 4.01892 108.906 4.25255C109.008 4.69296 109.143 5.52299 112.92 6.33606C114.224 6.60709 118.966 7.14914 118.966 11.2315C118.966 14.8056 116.019 16.0083 113.292 16.0083C111.501 16.0799 109.748 15.4752 108.381 14.3144L108.364 14.3991ZM51.0578 15.246C49.7818 14.4232 48.7634 13.2574 48.1195 11.8823C47.4755 10.5071 47.232 8.97823 47.4169 7.47098C47.3851 6.08299 47.7534 4.71519 48.4778 3.53089C49.2021 2.34659 50.2519 1.39584 51.5018 0.792151C52.7517 0.188465 54.1489 -0.0426445 55.5266 0.126415C56.9042 0.295475 58.2041 0.857558 59.2711 1.74556L59.8977 0.559825H61.5911V6.40381H59.8807C59.7141 5.51631 59.3362 4.682 58.7791 3.97143C58.222 3.26086 57.5021 2.69492 56.6801 2.32149C55.9971 2.03162 55.2418 1.95739 54.5154 2.10876C53.7891 2.26013 53.1263 2.62986 52.6158 3.16844C51.6828 4.65876 51.188 6.38167 51.188 8.14008C51.188 9.89849 51.6828 11.6214 52.6158 13.1117C53.1047 13.6812 53.7643 14.0777 54.4964 14.2425C55.2286 14.4073 55.9944 14.3315 56.6801 14.0264C57.4142 13.7722 58.0386 13.2733 58.4487 12.6133C58.8587 11.9533 59.0295 11.1724 58.9324 10.4014C58.9324 9.28346 58.6276 9.28347 57.4421 9.30041H56.4938V7.6065H64.1652V9.30041H63.5386C62.5733 9.30041 62.2177 9.3004 62.2008 10.4014V15.6864H60.5073C60.2363 15.3307 59.9823 14.9411 59.6775 14.5854C58.2697 15.6067 56.5732 16.1525 54.8342 16.1438C53.5165 16.2015 52.2087 15.8906 51.0578 15.246ZM22.6246 16.0252C22.0579 16.0285 21.4918 15.9889 20.9312 15.9067C19.5101 15.6878 18.1773 15.0798 17.0803 14.15C15.9834 13.2202 15.1651 12.0049 14.7162 10.6386C14.2513 9.2142 14.1806 7.69052 14.5116 6.22919C14.8425 4.76786 15.5628 3.4234 16.5959 2.33843C18.2271 0.807807 20.3883 -0.0301804 22.6246 0.000831018C23.3239 0.00132335 24.0214 0.0693943 24.7076 0.204099C25.7849 0.419853 26.8053 0.858245 27.7034 1.49121C28.6016 2.12417 29.3577 2.93777 29.9234 3.87989C30.6473 5.24346 31.0002 6.7734 30.9467 8.31638C30.8932 9.85936 30.4352 11.3612 29.6186 12.6713C28.8199 13.7663 27.7642 14.648 26.5445 15.2388C25.3249 15.8296 23.9787 16.1113 22.6246 16.0591V16.0252ZM20.0167 2.59251C18.5095 3.57498 17.9507 5.98034 17.9507 8.06385C17.9507 10.1474 18.6111 12.8915 20.6433 13.7723C21.2665 14.0251 21.9354 14.1462 22.6077 14.1281C23.2634 14.1513 23.9178 14.0536 24.5382 13.8401C26.8244 12.9423 27.2647 10.3676 27.2816 8.04691C27.4006 7.04463 27.2817 6.0284 26.9345 5.0807C26.5873 4.13301 26.0216 3.28055 25.2833 2.59251C24.4931 2.08191 23.5647 1.82755 22.6246 1.86413C21.724 1.84641 20.8389 2.10021 20.0844 2.59251H20.0167ZM90.8033 15.5509V13.7046C92.8016 13.7046 93.2588 13.874 93.2588 12.7052V3.25314C93.2588 2.1521 92.7169 2.35537 90.8033 2.35537V0.475124H105.096V6.77648H103.403V5.72625C103.46 4.77247 103.217 3.82468 102.708 3.01599C102.081 2.54359 101.308 2.30408 100.524 2.33843H96.4425V6.87811C97.1896 6.96397 97.9458 6.84083 98.6271 6.52239C99.2198 6.04809 99.2706 4.10009 99.2706 4.10009H100.862V11.8582H99.169C99.169 11.8582 99.169 9.7747 98.5424 9.11408C97.9158 8.45345 96.3578 8.72448 96.3578 8.72448V13.8062H100.524C100.854 13.8567 101.191 13.8415 101.515 13.7615C101.84 13.6815 102.145 13.5383 102.414 13.3401C102.683 13.1418 102.911 12.8924 103.083 12.6061C103.256 12.3199 103.37 12.0024 103.42 11.6719C103.436 11.4803 103.436 11.2876 103.42 11.096V9.13101H105.113V15.5679L90.8033 15.5509ZM84.8423 15.5509L77.3911 4.45582V12.5866C77.3911 13.9587 77.933 13.7385 79.9821 13.7385V15.5509H72.5986V13.7215C74.4275 13.7215 74.834 13.9417 74.834 12.4511V3.57499C74.834 2.82966 74.7324 2.35537 73.8856 2.35537H72.5986V0.475124H78.6442L85.1302 9.96103C85.1302 9.96103 85.1302 5.81095 85.1302 3.28702C85.1302 2.77884 85.1302 2.30455 84.148 2.32149H82.7594V0.458188H89.8211V2.32149H88.1276C87.4841 2.32149 87.501 2.86354 87.501 3.21927V15.5509H84.8423ZM63.9789 15.5509V13.7215C64.995 13.7215 66.0957 13.8909 66.0957 12.8407V3.03293C66.0957 2.18598 65.1135 2.33843 63.9789 2.33843V0.475124H71.5656V2.33843C70.2278 2.33843 69.4657 2.18597 69.4657 3.01599V12.8407C69.4657 13.857 70.1092 13.7385 71.5656 13.7385V15.5509H63.9789ZM0.0677383 15.5509V13.7554C1.7612 13.7554 2.01522 13.586 2.16763 13.315C2.2265 13.03 2.2265 12.736 2.16763 12.4511V3.55804C2.18609 3.29413 2.15154 3.02919 2.06602 2.77884C1.84587 2.18598 0.372561 2.32149 0 2.32149V0.458188H7.87459V2.30455C6.80771 2.30455 5.91017 2.30455 5.62228 2.71109C5.4692 2.95916 5.40362 3.25139 5.436 3.54111C5.436 3.84601 5.436 13.7046 5.436 13.7046H6.62142C9.24629 13.7046 10.9228 13.7046 11.3292 12.5019C11.5962 11.3906 11.755 10.256 11.8034 9.11408H13.3614V15.5509H0.0677383ZM42.726 15.5509C42.726 15.5509 37.7641 8.18243 35.2748 4.45582V12.5866C35.2748 13.9078 35.8675 13.7215 37.8657 13.7215V15.5509H30.4823V13.7215C32.4467 13.7215 32.7176 13.857 32.7176 12.4511V3.55804C32.7176 2.81272 32.87 2.42312 32.1419 2.35537H30.4484V0.458188H36.494L42.9461 9.96103C42.9461 9.96103 42.9461 5.81095 42.9461 3.28702C42.9461 2.77884 42.9461 2.30455 41.9639 2.32149H40.5753V0.458188H47.637V2.32149H45.9436C45.2492 2.32149 45.317 2.8466 45.317 3.20232V15.5509H42.726Z" fill="#003150"></path></svg>